<svg width="25" height="24" viewBox="0 0 25 24" fill="none" xmlns="http://www.w3.org/2000/svg">
<path d="M12.375 4C13.4359 4 14.4533 4.42143 15.2034 5.17157C15.9536 5.92172 16.375 6.93913 16.375 8C16.375 9.06087 15.9536 10.0783 15.2034 10.8284C14.4533 11.5786 13.4359 12 12.375 12C11.3141 12 10.2967 11.5786 9.54657 10.8284C8.79643 10.0783 8.375 9.06087 8.375 8C8.375 6.93913 8.79643 5.92172 9.54657 5.17157C10.2967 4.42143 11.3141 4 12.375 4ZM12.375 6C11.8446 6 11.3359 6.21071 10.9608 6.58579C10.5857 6.96086 10.375 7.46957 10.375 8C10.375 8.53043 10.5857 9.03914 10.9608 9.41421C11.3359 9.78929 11.8446 10 12.375 10C12.9054 10 13.4141 9.78929 13.7892 9.41421C14.1643 9.03914 14.375 8.53043 14.375 8C14.375 7.46957 14.1643 6.96086 13.7892 6.58579C13.4141 6.21071 12.9054 6 12.375 6ZM12.375 13C15.045 13 20.375 14.33 20.375 17V20H4.375V17C4.375 14.33 9.705 13 12.375 13ZM12.375 14.9C9.405 14.9 6.275 16.36 6.275 17V18.1H18.475V17C18.475 16.36 15.345 14.9 12.375 14.9Z" fill="white"/>
</svg>
