<svg width="25" height="24" viewBox="0 0 25 24" fill="none" xmlns="http://www.w3.org/2000/svg">
<path d="M12.305 9.67C12.345 9.78 12.375 9.88 12.375 10V15.22C12.375 15.72 12.185 16.2 11.845 16.57L9.055 19.62L5.655 16.22L6.875 15L9.675 2.86C9.795 2.36 10.245 2 10.765 2C11.375 2 11.875 2.5 11.875 3.11V8.07C11.715 8.03 11.545 8 11.375 8C10.275 8 9.375 8.9 9.375 10V13C9.375 13.28 9.595 13.5 9.875 13.5C10.155 13.5 10.375 13.28 10.375 13V10C10.375 9.45 10.825 9 11.375 9C11.565 9 11.725 9.07 11.875 9.16C11.995 9.23 12.085 9.32 12.175 9.42C12.205 9.46 12.235 9.5 12.255 9.55C12.275 9.59 12.295 9.63 12.305 9.67ZM2.875 19L6.875 22L8.045 20.73L4.595 17.28L2.875 19ZM18.875 15L16.075 2.86C15.955 2.36 15.505 2 14.985 2C14.375 2 13.875 2.5 13.875 3.11V8.07C14.035 8.03 14.205 8 14.375 8C15.475 8 16.375 8.9 16.375 10V13C16.375 13.28 16.155 13.5 15.875 13.5C15.595 13.5 15.375 13.28 15.375 13V10C15.375 9.45 14.925 9 14.375 9C14.185 9 14.025 9.07 13.875 9.16C13.755 9.23 13.665 9.32 13.585 9.42C13.555 9.46 13.515 9.5 13.495 9.55C13.475 9.59 13.455 9.63 13.445 9.67C13.405 9.78 13.375 9.88 13.375 10V15.22C13.375 15.72 13.565 16.2 13.905 16.57L16.695 19.62L20.095 16.22L18.875 15ZM21.155 17.28L17.705 20.73L18.875 22L22.875 19L21.155 17.28Z" fill="white"/>
</svg>
